<svg xmlns="http://www.w3.org/2000/svg" width="1440" height="860" viewBox="0 0 1440 860" role="img" aria-labelledby="title desc">
  <title id="title">Moonbox TUI screenshot</title>
  <desc id="desc">A dark terminal UI for Moonbox showing session list, timeline, work capsule preview, branch path, and Vim-style key hints.</desc>
  <defs>
    <linearGradient id="screen" x1="0" y1="0" x2="1" y2="1">
      <stop offset="0" stop-color="#07090b"/>
      <stop offset="1" stop-color="#0e1117"/>
    </linearGradient>
    <filter id="shadow" x="-10%" y="-10%" width="120%" height="120%">
      <feDropShadow dx="0" dy="24" stdDeviation="32" flood-color="#000000" flood-opacity="0.45"/>
    </filter>
    <style>
      .mono { font-family: ui-monospace, SFMono-Regular, Menlo, Monaco, Consolas, "Liberation Mono", monospace; }
      .sans { font-family: Inter, ui-sans-serif, system-ui, -apple-system, BlinkMacSystemFont, "Segoe UI", sans-serif; }
      .muted { fill: #8b949e; }
      .text { fill: #f0f3f6; }
      .blue { fill: #6ea8fe; }
      .green { fill: #5bd174; }
      .gold { fill: #e7c55f; }
      .red { fill: #ff6b6b; }
      .border { stroke: #3b4654; }
      .panel { fill: rgba(7, 9, 11, 0.96); stroke: #3b4654; }
      .rule { stroke: #2f3742; }
    </style>
  </defs>

  <rect width="1440" height="860" fill="#12151b"/>
  <rect x="42" y="42" width="1356" height="776" rx="18" fill="#f7f7f5"/>

  <g filter="url(#shadow)">
    <rect x="118" y="112" width="1204" height="666" rx="8" fill="url(#screen)" stroke="#58616f" stroke-width="2"/>
  </g>

  <rect x="118" y="112" width="1204" height="58" rx="8" fill="#050607"/>
  <line x1="118" y1="170" x2="1322" y2="170" class="rule" stroke-width="2"/>

  <text x="144" y="149" class="mono text" font-size="19" font-weight="800">MOONBOX CLI v0.1.0</text>
  <text x="392" y="149" class="mono muted" font-size="17">Filter:</text>
  <text x="456" y="149" class="mono blue" font-size="17" font-weight="700">All</text>
  <text x="560" y="149" class="mono muted" font-size="17">Target:</text>
  <text x="632" y="149" class="mono blue" font-size="17" font-weight="700">Hermes</text>
  <text x="758" y="149" class="mono muted" font-size="17">Compiler:</text>
  <text x="850" y="149" class="mono green" font-size="17" font-weight="800">ACTIVE</text>
  <text x="1004" y="149" class="mono muted" font-size="17">Verify:</text>
  <text x="1074" y="149" class="mono green" font-size="17" font-weight="800">PASS</text>

  <line x1="428" y1="170" x2="428" y2="692" class="border" stroke-width="2"/>
  <line x1="936" y1="170" x2="936" y2="692" class="border" stroke-width="2"/>
  <line x1="118" y1="692" x2="1322" y2="692" class="rule" stroke-width="2"/>
  <line x1="118" y1="748" x2="1322" y2="748" class="rule" stroke-width="1" stroke-dasharray="5 6"/>

  <text x="144" y="218" class="mono muted" font-size="16" font-weight="700">[SESSIONS]</text>
  <rect x="136" y="246" width="374" height="88" rx="8" fill="none" stroke="#5b8def" stroke-width="2"/>
  <text x="148" y="280" class="mono blue" font-size="18" font-weight="800">&gt;</text>
  <text x="176" y="280" class="sans text" font-size="20" font-weight="700">Moonbox session design</text>
  <text x="176" y="309" class="mono muted" font-size="15">~/coding/moonbox</text>
  <text x="176" y="334" class="mono blue" font-size="15">Codex · main · 42K tokens</text>

  <text x="176" y="398" class="sans text" font-size="20">Claude QC platform trace</text>
  <text x="176" y="429" class="mono muted" font-size="15">~/dev/qc-platform</text>
  <text x="176" y="454" class="mono gold" font-size="15">Claude · warning · 67K tokens</text>

  <text x="148" y="522" class="mono red" font-size="18" font-weight="800">!</text>
  <text x="176" y="522" class="sans text" font-size="20">Hermes cxcp 502</text>
  <text x="176" y="553" class="mono muted" font-size="15">~/lab/cxcp</text>
  <text x="176" y="578" class="mono red" font-size="15">Hermes · failed after resume</text>

  <text x="462" y="218" class="mono muted" font-size="16" font-weight="700">[TIMELINE]</text>
  <line x1="496" y1="258" x2="496" y2="656" class="border" stroke-width="2"/>
  <circle cx="496" cy="282" r="6" fill="#6ea8fe"/>
  <rect x="528" y="267" width="76" height="24" rx="5" fill="none" stroke="#6ea8fe"/>
  <text x="548" y="285" class="mono blue" font-size="13" font-weight="700">USER</text>
  <text x="528" y="326" class="sans text" font-size="20">Analyze cxcp copied-session resume failures.</text>

  <circle cx="496" cy="378" r="6" fill="#e7c55f"/>
  <rect x="528" y="363" width="112" height="24" rx="5" fill="none" stroke="#e7c55f"/>
  <text x="548" y="381" class="mono gold" font-size="13" font-weight="700">ASSISTANT</text>
  <text x="528" y="422" class="sans text" font-size="20">Raw session copy is the wrong abstraction.</text>
  <text x="528" y="449" class="sans text" font-size="20">Compile a Work Capsule instead.</text>

  <circle cx="496" cy="504" r="6" fill="#ff6b6b"/>
  <rect x="528" y="489" width="74" height="24" rx="5" fill="none" stroke="#ff6b6b"/>
  <text x="548" y="507" class="mono red" font-size="13" font-weight="700">ERROR</text>
  <text x="528" y="548" class="mono red" font-size="18">502 after provider/session mismatch</text>

  <circle cx="496" cy="612" r="8" fill="#e7c55f"/>
  <rect x="528" y="586" width="440" height="50" rx="6" fill="#e7c55f"/>
  <text x="552" y="617" class="sans" font-size="19" font-weight="800" fill="#20242b">◆ REWIND: before raw resume</text>

  <text x="966" y="218" class="mono muted" font-size="16" font-weight="700">[WORK CAPSULE]</text>
  <text x="966" y="286" class="sans blue" font-size="18" font-weight="800">Goal</text>
  <text x="966" y="317" class="sans text" font-size="20">Continue work without raw session copy.</text>
  <text x="966" y="386" class="sans blue" font-size="18" font-weight="800">State</text>
  <text x="966" y="417" class="mono gold" font-size="19" font-weight="800">IN_PROGRESS</text>

  <text x="966" y="486" class="sans blue" font-size="18" font-weight="800">Decisions</text>
  <text x="986" y="522" class="sans text" font-size="18">• Source session stays read-only</text>
  <text x="986" y="550" class="sans text" font-size="18">• Compiler handles compression</text>
  <text x="986" y="578" class="sans text" font-size="18">• Target launcher creates a branch</text>

  <text x="966" y="642" class="sans red" font-size="18" font-weight="800">Risks</text>
  <text x="986" y="676" class="sans gold" font-size="18">! target protocol may differ per CLI</text>

  <text x="144" y="729" class="mono muted" font-size="17">* HEAD</text>
  <line x1="220" y1="724" x2="262" y2="724" stroke="#647083" stroke-width="3"/>
  <text x="282" y="729" class="mono text" font-size="17">main</text>
  <line x1="338" y1="724" x2="380" y2="724" stroke="#647083" stroke-width="3"/>
  <text x="402" y="729" class="mono text" font-size="17">rewind/evt-091</text>
  <line x1="560" y1="724" x2="602" y2="724" stroke="#5b8def" stroke-width="4"/>
  <rect x="620" y="706" width="198" height="32" rx="6" fill="#5b8def"/>
  <text x="654" y="728" class="mono" font-size="16" font-weight="800" fill="#0c1118">hermes/new-branch</text>

  <g class="mono" font-size="15">
    <rect x="144" y="760" width="50" height="28" rx="5" fill="none" stroke="#58616f"/>
    <text x="155" y="779" class="blue" font-weight="800">j/k</text><text x="210" y="779" class="muted">Nav</text>
    <rect x="284" y="760" width="62" height="28" rx="5" fill="none" stroke="#58616f"/>
    <text x="297" y="779" class="blue" font-weight="800">gg/G</text><text x="362" y="779" class="muted">Jump</text>
    <rect x="452" y="760" width="38" height="28" rx="5" fill="none" stroke="#58616f"/>
    <text x="464" y="779" class="blue" font-weight="800">/</text><text x="506" y="779" class="muted">Search</text>
    <rect x="612" y="760" width="82" height="28" rx="5" fill="none" stroke="#58616f"/>
    <text x="626" y="779" class="blue" font-weight="800">space</text><text x="710" y="779" class="muted">Rewind</text>
    <rect x="838" y="760" width="64" height="28" rx="5" fill="none" stroke="#58616f"/>
    <text x="852" y="779" class="blue" font-weight="800">enter</text><text x="918" y="779" class="muted">Target</text>
    <rect x="1056" y="760" width="34" height="28" rx="5" fill="none" stroke="#58616f"/>
    <text x="1067" y="779" class="blue" font-weight="800">o</text><text x="1106" y="779" class="muted">Original</text>
    <rect x="1200" y="760" width="34" height="28" rx="5" fill="none" stroke="#58616f"/>
    <text x="1211" y="779" class="blue" font-weight="800">q</text><text x="1250" y="779" class="muted">Quit</text>
  </g>
</svg>
